<?xml version="1.0" standalone="no"?>
<!DOCTYPE svg PUBLIC "-//W3C//DTD SVG 20010904//EN"
 "http://www.w3.org/TR/2001/REC-SVG-20010904/DTD/svg10.dtd">
<svg version="1.0" xmlns="http://www.w3.org/2000/svg"
 width="261.000000pt" height="261.000000pt" viewBox="0 0 261.000000 261.000000"
 preserveAspectRatio="xMidYMid meet">
<metadata>
Created by potrace 1.14, written by Peter Selinger 2001-2017
</metadata>
<g transform="translate(0.000000,261.000000) scale(0.100000,-0.100000)"
fill="#000000" stroke="none">
<path d="M1085 2444 c-280 -90 -567 -182 -636 -204 l-126 -40 -26 -112 c-15
-62 -67 -286 -116 -498 -107 -461 -161 -692 -161 -696 0 -6 161 -144 168 -144
5 0 16 16 25 36 10 19 31 43 47 52 23 13 34 30 45 67 41 144 125 602 125 685
0 27 -5 52 -10 55 -8 5 -8 11 -1 19 6 7 8 16 4 19 -11 12 -78 8 -91 -5 -7 -7
-12 -10 -12 -6 0 14 115 216 134 235 19 19 65 27 521 81 275 33 501 58 503 57
2 -2 -11 -74 -27 -161 -26 -132 -35 -162 -53 -174 -22 -15 -141 -57 -188 -66
-14 -3 -41 -13 -61 -23 l-37 -17 -5 60 c-2 34 0 66 5 72 13 18 -27 21 -121 12
-99 -9 -126 -24 -152 -84 -23 -51 -63 -224 -54 -233 8 -8 76 -1 97 10 10 5 18
16 18 23 0 26 47 54 153 90 60 21 111 36 113 33 11 -10 -69 -412 -85 -429 -9
-9 -73 -41 -143 -71 l-126 -55 -4 62 c-2 33 1 64 7 68 18 13 -4 20 -39 14 -32
-6 -35 -11 -45 -54 -24 -114 -34 -181 -28 -196 8 -21 75 -21 170 0 94 21 114
35 128 87 6 24 19 48 29 55 20 12 286 112 299 112 4 0 -9 -89 -31 -198 -21
-108 -37 -201 -35 -206 2 -5 23 29 46 75 45 87 76 129 96 129 7 0 19 8 27 18
20 22 315 600 424 830 47 97 92 184 102 193 9 9 61 31 115 49 53 18 97 36 97
40 0 4 -93 94 -206 201 -328 308 -317 298 -344 298 -14 0 -254 -75 -535 -165z"/>
<path d="M2365 1894 c3 -22 16 -163 30 -315 27 -305 51 -449 74 -449 4 0 33
131 65 292 l57 291 -48 49 c-26 27 -79 77 -116 110 l-68 61 6 -39z"/>
<path d="M1927 1538 l-69 -130 69 7 c37 4 71 10 75 14 3 3 3 58 0 123 l-7 116
-68 -130z"/>
<path d="M1868 1196 c-88 -13 -107 -26 -115 -82 -8 -58 20 -79 103 -79 l63 0
-46 -85 c-71 -133 -81 -147 -111 -158 -34 -13 -114 -23 -108 -13 7 11 -371
-36 -395 -49 -14 -8 -19 -8 -15 -1 5 7 -2 9 -21 6 -15 -3 -253 -32 -528 -65
-541 -65 -570 -69 -562 -76 3 -3 48 0 100 6 55 7 101 9 110 4 8 -5 160 -137
337 -294 178 -157 330 -289 337 -293 9 -6 248 66 661 198 356 114 650 210 654
214 6 5 32 129 104 501 4 19 0 17 -16 -12 -26 -49 -52 -61 -126 -62 -34 -1
-60 -4 -58 -7 2 -3 -7 -4 -19 -2 -32 6 -352 -33 -376 -47 -17 -9 -11 9 30 87
62 116 95 163 115 163 21 0 35 46 32 107 l-3 53 -35 -1 c-19 -1 -70 -7 -112
-13z"/>
</g>
</svg>
