<svg xmlns="http://www.w3.org/2000/svg" width="200" height="200"><path d="M-3-3v213h208V-3H-3zm188.36 5.285c3.566.096 6.956.801 9.247 3.28 4.546 4.914 2.636 13.635 2.377 19.68-.304 7.073.375 14.1.096 21.177-1.367 34.644-2.293 69.11-2.338 103.812-.015 11.298 2.937 32.867-6.299 41.25-5.068 4.6-15.785 5.684-22.302 6.08-18.862 1.148-37.416-.683-56.235-.763-.21-.001-.239.444-.449.443-24.483-.104-48.921-.929-73.412-.885-9.328.016-22.605 3.243-28.31-6.468-7.304-12.43-4.202-31.229-4.212-44.975-.023-34.521-.149-69.074.43-103.562.301-17.95-2.785-37.399 20.467-38.311 36.602-1.434 73.386-.21 110.045-.65 13.517-.163 27.067.061 40.588.263 2.997.045 6.74-.467 10.306-.37z" fill="#abc"/></svg>