<svg viewBox="0 0 67.254 68.246" height="257.936" width="254.19" xmlns="http://www.w3.org/2000/svg">
    <path
        d="M21.673 64.259a3601.487 3601.487 0 00-5.16-4.554 17533.77 17533.77 0 01-7.757-6.797c-.119-.105.893-.326 2.249-.491 1.356-.165 6.811-.83 12.123-1.48a3945.96 3945.96 0 0115.742-1.89c3.347-.39 6.454-.857 6.905-1.038.662-.265 1.155-.944 2.58-3.548.968-1.77 1.76-3.28 1.76-3.355 0-.075-.226-.064-.502.023-1.103.35-2.952.21-3.475-.263-.539-.488-.696-1.82-.29-2.46.172-.273 4.259-1.028 5.927-1.096.113-.005.33.319.484.72.403 1.053-.09 2.471-1.045 3.01-.533.3-1.255 1.35-2.387 3.472-.892 1.673-1.622 3.165-1.622 3.315 0 .15.208.225.463.166.254-.06 3.474-.466 7.155-.903 6.512-.774 7.992-1.131 7.992-1.925 0-.153.053-.226.118-.161.064.064.011.59-.118 1.168-.13.578-.306 1.468-.392 1.978a16.567 16.567 0 01-.27 1.322 14.59 14.59 0 00-.247 1.191c-.419 2.48-1.27 6.377-1.427 6.538-.157.162-33.984 11.078-34.222 11.045-.048-.007-2.11-1.801-4.585-3.987zM2.886 47.722c-.582-.52-1.499-1.336-2.038-1.815-.906-.806-.961-.937-.739-1.761.132-.49.293-1.189.358-1.553.065-.364.361-1.614.659-2.778.297-1.164.604-2.471.68-2.905.137-.765 2.824-12.323 3.895-16.746.291-1.204.585-2.513.653-2.91.067-.397.23-1.08.36-1.516.131-.436.436-1.715.678-2.841l.44-2.048 6.523-2.1C36.865 1.504 41.645-.004 42.083 0c.27.003 1.507.985 2.749 2.183 1.242 1.198 4.248 4.066 6.68 6.374 2.433 2.308 4.423 4.283 4.423 4.389 0 .106-1.126.58-2.502 1.055-1.377.474-2.612 1-2.745 1.167-.134.168-3.294 6.378-7.024 13.8-6.144 12.225-6.861 13.53-7.639 13.89-.635.294-1.19.98-2.135 2.646-.702 1.237-1.218 1.951-1.147 1.587.98-4.96 1.777-9.597 1.67-9.704-.164-.164-7.146 2.43-8.173 3.036-.403.238-.732.627-.732.865s-.129.802-.286 1.253c-.239.685-.513.885-1.654 1.208-3.645 1.032-5.506 1.141-5.812.342-.076-.197.016-1.12.205-2.053.189-.931.422-2.14.517-2.686.145-.825.282-.992.815-.992.881 0 1.257.815 1.04 2.259-.097.65-.127 1.18-.066 1.18.42 0 7.051-3.032 7.413-3.39.314-.309.775-2.189 1.502-6.132.578-3.127 1.007-5.728.955-5.78-.052-.052-1.56.424-3.353 1.059-2.93 1.036-3.323 1.251-3.888 2.124-.492.76-.856 1.01-1.672 1.148-.574.097-1.119.101-1.21.009-.239-.238.895-5.063 1.454-6.192.559-1.128 1.23-1.366 4.093-1.443 2.512-.069 2.948.288 2.748 2.246l-.127 1.243 3.756-1.323c2.066-.727 3.987-1.475 4.269-1.661.75-.496 2.395-8.993 1.76-9.095-.231-.037-6.311.637-13.51 1.498-12.727 1.522-13.107 1.584-13.66 2.226-.523.609-3.545 6.027-3.545 6.356 0 .08.564.181 1.254.226 2.337.15 2.35 1.07.173 12.119-1.538 7.804-1.873 8.977-2.65 9.272-.335.128-.913.713-1.284 1.3-.371.589-.703 1.067-.738 1.063-.034-.003-.539-.43-1.121-.95zm61.045-10.088c-.16-.547-.413-1.708-.564-2.581-.29-1.686-1.675-16.565-1.552-16.678.04-.037 1.28 1.083 2.756 2.489l2.683 2.555-.375 1.98c-.206 1.09-.418 2.219-.471 2.51-.053.291-.338 1.72-.634 3.175a430.078 430.078 0 00-.985 5.027c-.246 1.31-.474 2.412-.507 2.45-.033.036-.19-.38-.35-.927zm-13.9-9.262c.817-1.564 1.588-2.957 1.711-3.096.124-.139.224 1.057.224 2.68v2.93l-.827.165c-.454.09-1.225.165-1.712.165h-.885z"
        fill="#ffe871" />
</svg>