<svg xmlns="http://www.w3.org/2000/svg" viewBox="0 0 100 100">
   <defs>
      <filter height="1.3" y="-.15" width="1.3" x="-.15" id="wave" color-interpolation-filters="sRGB">
         <feTurbulence type="fractalNoise" baseFrequency=".015" result="result1"/>
         <feGaussianBlur stdDeviation="2" result="result2"/>
         <feDisplacementMap scale="50" yChannelSelector="B" xChannelSelector="R" in="SourceGraphic" in2="result2"/>
      </filter>
   </defs>
   <g transform="translate(0 -197)">
      <rect 
      class="border-img"
      width="83" 
      height="98" 
      fill="#ddd" 
      stroke="#ddd"
      x="11" 
      y="204" 
      rx="5" 
      ry="5" 
      transform="matrix(1.00522 0 0 1.05518 -1.12 -15.618)" 
      filter="url(#wave)"/>
      <path d="M44.48 294.282c-.758-.201-3.394-.424-5.859-.494-2.465-.071-4.683-.254-4.93-.407-.84-.518-8.015-.9-18.358-.974-12.548-.091-12.099.182-10.95-6.67 1.953-11.65 2.413-15.805 2.442-22.042.03-6.462-.554-19.466-.9-20.074-.094-.164-.345-4.597-.558-9.852-.426-10.475.474-25.718 1.598-27.102 2.443-3.007 2.108-2.912 9.205-2.622 3.998.164 8.019.007 10.045-.39 1.857-.365 4.264-.72 5.347-.789 4.095-.261 7.871-1.011 7.568-1.502-.174-.28.856-.51 2.288-.51s3.104-.268 3.715-.596c1.841-.985 13.35-1.06 16.152-.105 1.334.455 2.582.671 2.772.481.19-.19.747-.003 1.236.416 2.374 2.03 13.339 3.957 20.576 3.616 2.885-.137 3.353 0 4.305 1.254 1.049 1.382 1.049 1.46-.001 4.33-.588 1.607-.927 3.064-.754 3.237.173.173.061.314-.249.314s-.584.317-.611.704c-.027.387-.2 1.337-.386 2.111-.185.774-.463 2.294-.618 3.378a192.737 192.737 0 01-.615 3.94c-.47 2.788-.272 10.323.386 14.637.517 3.395 1.134 5.875 3.08 12.385.417 1.393.887 3.166 1.046 3.94.696 3.402.925 4.305 1.424 5.63.565 1.499 2.704 11.26 3.2 14.603.56 3.773.71 4.519 1.016 5.013.168.272.422 1.9.564 3.616.245 2.964.181 3.151-1.252 3.726-.83.333-2.904.718-4.607.856-4.034.327-8.587 1.137-16.12 2.868a780.113 780.113 0 01-10.333 2.301c-2.32.492-4.41 1.014-4.644 1.159-.235.145-.427-.02-.427-.366s-.296-.447-.657-.223c-.841.52-13.316.687-15.136.203z" fill="#1a1a1a"/>
   </g>
</svg>
