<svg xmlns="http://www.w3.org/2000/svg" viewBox="0 0 264.583 264.583" width="20px" height="20px">
   <path
   fill="#dfdfd2"
      d="M181.318 150.283a44.955 44.955 0 003.045-8.813l.006-.023c1.982-8.797 2.253-17.882-.054-26.336a3.68 3.68 0 00-.05-.166c-2.533-7.808-6.595-14.692-10.603-20.37l-.032-.044c-3.037-4.167-6.307-7.959-9.92-11.185-4.116-3.675-8.456-6.415-13.054-8.192l-.037-.014c-5.602-2.095-11.03-2.23-15.254-1.814-.63.062-1.241.137-1.833.222-4.671.67-8.975 2.075-12.59 3.635l-.02.009C106.44 83.54 98.606 92.953 95.134 97.944a3.654 3.654 0 00-.51 3.104 23.185 23.185 0 00-1.408 2.583c-.457.967-.83 1.852-1.166 2.59-.438.964-.724 1.553-1.027 2.094a11.75 11.75 0 01-.318.537c-.046.072-.086.13-.129.194a3.654 3.654 0 00-2.613 3.699c.06 1.128-.013 2.471-.336 4.248-.262 1.446-.62 2.839-1.11 4.71-.61 2.286-1.567 5.615-1.943 8.813-.183 1.562-.255 3.254-.078 5.002a17.205 17.205 0 001.315 5.13c1.73 4.44 4.39 8.277 7.537 11.765 3 3.327 6.374 6.263 9.692 9.092.05.042.1.082.151.122.912.696 1.697 1.525 2.835 2.692 1 1.024 2.286 2.32 3.882 3.376a23.5 23.5 0 004.37 2.43c1.503.646 3.03 1.14 4.538 1.545 2.892.775 5.988 1.28 8.58 1.8 5.611 1.289 11.54 1.899 17.426 1.51 5.925-.391 11.815-1.795 17.273-4.538 5.763-2.865 10.616-7.105 14.364-12.07a44.963 44.963 0 004.858-8.089z" />
   </svg>