<svg xmlns="http://www.w3.org/2000/svg" viewBox="0 0 21.167 21.167" height="80" width="80">
   <defs>
      <filter height="1.6" y="-.3" width="1.592" x="-.296" id="prefix__a" color-interpolation-filters="sRGB">
         <feGaussianBlur stdDeviation="2.2"/>
      </filter>
   </defs>
   <path transform="matrix(.93876 0 0 .95287 8.576 6.398)" d="M9.883 13c-.704.594-12.337 1.553-13.117 1.06-.78-.495-5.35-11.357-5.117-12.245C-8.118.927.946-6.497 1.863-6.55 2.781-6.602 12.637-.514 12.978.339c.342.854-2.39 12.066-3.095 12.66z"
   fill="currentColor"
   class="ea-hex-icon"
    />
   <path transform="matrix(.6112 0 0 .57388 6.487 5.48)" d="M14.925 15.668c-.292.471-5.74-5.058-6.249-4.843-.53.225-.85 8.01-1.421 8.086-.548.073.24-7.598-.251-7.858C6.49 10.782.08 15.5-.336 15.096c-.398-.387 6.26-4.513 6.155-5.06-.11-.568-7.561-2.776-7.51-3.355.049-.555 7.376 2.2 7.74 1.78C6.43 8.021 3.347.7 3.832.386c.466-.302 3.026 7.11 3.579 7.137.575.028 4.186-6.838 4.734-6.656.526.176-3.676 6.627-3.35 7.078.34.47 8.107-1.01 8.312-.468.197.52-7.64 1.555-7.782 2.09-.148.557 5.903 5.608 5.6 6.1z" 
   fill="currentColor" 
   class="ea-shine"
   filter="url(#prefix__a)"/>
</svg>
