<svg width="712.97" height="570" xmlns="http://www.w3.org/2000/svg">
   <path fill="#abc" fill-rule="evenodd" class="prefix__prefix__border-light"
      d="M692.2 13.087c-117.358-7.53-235.12-5.355-352.665-5.83-86.295.671-172.57 2.076-258.857.284C53.831 9.542 1.564 3.668 9.332 47.155c-3.386 142.425-.805 277.3-5.432 416.75 5.11 29.642-7.632 64.558 8.17 90.548 30.714 15.62 66.937 7.798 100.04 7.793 92.657-3.525 182.244 5.646 274.948 2.848 78.883-2.068 160.996-9.514 239.812-6.212 29.452 1.305 71.47-3.984 75.18-41.673.107-34.385-.999-68.894 1.69-103.337 3.641-49.463 3.868-102.115 1.105-151.424-1.49-75.473 9.46-147.377 3.016-222.76-1.826-9.797-4.052-24.36-15.661-26.6z" />
</svg>