<svg xmlns="http://www.w3.org/2000/svg" width="712.97" height="1270.582"><path fill="#abc" fill-rule="evenodd" class="prefix__border-light" d="M695.356 13.568C652.276-.303 364.964-3.36 200.329 3.58 153.398 5.559 54.946-8.8 24.058 12.79-1.11 30.38 7.624 60.895 6.838 74.547 2.854 143.862 1.374 213.283.55 282.787c-2.822 238.2 6.283 475.21 3.436 713.416-.736 61.565 1.512 123.155.78 184.806-.25 21.188-3.242 58.286 12.365 75.249 25.69 27.922 103.435 6.427 136.842 6.392 130.24-.138 260.383-13.351 390.835-10.365 34.614.792 117.153 22.396 140.953-15.223 29.042-45.904 18.129-122.22 18.793-173.072 1.717-131.567 6.925-263.548.514-395.02-10.752-220.507 29.605-642.743-9.712-655.402z"/></svg>