 
<svg xmlns="http://www.w3.org/2000/svg" width="1280" height="720">
    <path fill="#abc" fill-rule="evenodd" d="M19.62 22.499C5.749 65.578 2.692 352.891 9.633 517.526c1.978 46.931-12.38 145.383 9.209 176.271 17.591 25.167 48.105 16.434 61.757 17.219 69.315 3.986 138.736 5.466 208.241 6.289 238.199 2.822 475.21-6.283 713.415-3.436 61.565.736 123.155-1.512 184.806-.781 21.188.251 58.286 3.243 75.249-12.364 27.922-25.691 6.427-103.435 6.392-136.842-.138-130.241-13.351-260.383-10.365-390.835.792-34.614 22.396-117.153-15.223-140.953-45.904-29.042-122.22-18.129-173.072-18.793-131.567-1.717-263.548-6.925-395.019-.514C454.515 23.539 32.279-16.818 19.62 22.499z"/>
</svg>